<?xml version="1.0" standalone="no"?>
<!DOCTYPE svg PUBLIC "-//W3C//DTD SVG 20010904//EN"
 "http://www.w3.org/TR/2001/REC-SVG-20010904/DTD/svg10.dtd">
<svg version="1.0" xmlns="http://www.w3.org/2000/svg"
 width="1024.000000pt" height="1024.000000pt" viewBox="0 0 1024.000000 1024.000000"
 preserveAspectRatio="xMidYMid meet">
<metadata>
Created by potrace 1.11, written by Peter Selinger 2001-2013
</metadata>
<g transform="translate(0.000000,1024.000000) scale(0.100000,-0.100000)"
fill="#000000" stroke="none">
<path d="M551 8250 c-247 -65 -436 -242 -519 -485 l-27 -80 0 -2565 0 -2565
27 -80 c40 -116 92 -199 183 -290 91 -91 174 -143 290 -183 l80 -27 4535 0
4535 0 80 27 c113 39 198 91 286 178 87 86 149 184 187 297 l27 78 0 2565 0
2565 -27 80 c-40 115 -92 199 -183 290 -90 91 -173 143 -290 183 l-80 27
-4515 2 c-4438 2 -4516 2 -4589 -17z m9075 -515 c30 -19 60 -49 79 -79 l30
-49 3 -2471 c3 -2747 9 -2515 -65 -2591 -20 -21 -55 -46 -77 -56 -40 -18 -179
-19 -4476 -19 -4274 0 -4436 1 -4475 19 -52 23 -103 74 -126 126 -18 38 -19
139 -19 2506 l0 2465 25 51 c27 53 70 93 127 118 28 12 661 14 4479 12 l4446
-2 49 -30z"/>
<path d="M4042 6854 c-193 -30 -333 -98 -471 -228 -119 -114 -194 -242 -237
-403 -24 -88 -26 -111 -23 -250 l4 -153 -48 0 c-49 0 -216 22 -302 41 -397 84
-770 264 -1065 514 -85 73 -261 246 -300 298 -12 15 -26 27 -31 27 -14 0 -65
-114 -90 -205 -30 -105 -33 -316 -6 -416 48 -184 121 -306 262 -437 75 -70 76
-72 47 -72 -68 0 -272 61 -306 92 -24 21 -29 4 -23 -84 7 -101 22 -164 58
-249 92 -217 292 -404 507 -475 68 -22 77 -35 34 -47 -36 -10 -228 -13 -269
-3 -27 6 -33 5 -33 -9 0 -54 138 -275 216 -347 137 -125 366 -228 509 -228 33
0 46 -4 43 -12 -13 -42 -333 -214 -496 -268 -194 -64 -422 -97 -608 -87 -63 4
-114 3 -114 -1 0 -9 96 -66 195 -115 310 -155 570 -224 965 -257 239 -20 602
22 865 101 792 239 1400 888 1616 1729 48 185 68 328 76 532 l6 177 58 46
c120 95 365 363 347 381 -3 3 -59 -13 -124 -35 -119 -40 -250 -71 -300 -71
-23 0 -20 5 32 43 104 76 192 187 255 320 46 98 43 100 -87 35 -115 -56 -213
-93 -327 -123 -79 -20 -102 -19 -124 8 -54 66 -205 158 -323 197 -65 21 -240
51 -282 49 -13 -1 -60 -8 -106 -15z"/>
<path d="M7137 6793 c-4 -3 -7 -390 -7 -860 l0 -853 -484 0 c-267 0 -487 -4
-490 -8 -5 -9 1461 -1627 1474 -1627 14 0 1479 1618 1474 1627 -3 4 -223 8
-490 8 l-484 0 -2 858 -3 857 -491 3 c-270 1 -494 -1 -497 -5z"/>
</g>
</svg>
